<?xml version="1.0" encoding="UTF-8"?>
<svg width="700pt" height="700pt" version="1.1" viewBox="0 0 700 700" xmlns="http://www.w3.org/2000/svg" xmlns:xlink="http://www.w3.org/1999/xlink">
 <defs>
  <symbol id="n" overflow="visible">
   <path d="m29.312-1.75c-1.5117 0.78125-3.0898 1.3711-4.7344 1.7656-1.6367 0.40625-3.3398 0.60938-5.1094 0.60938-5.3125 0-9.5273-1.4844-12.641-4.4531-3.1055-2.9688-4.6562-7-4.6562-12.094s1.5508-9.125 4.6562-12.094c3.1133-2.9688 7.3281-4.4531 12.641-4.4531 1.7695 0 3.4727 0.19922 5.1094 0.59375 1.6445 0.39844 3.2227 0.99219 4.7344 1.7812v6.5938c-1.5312-1.0391-3.0391-1.8008-4.5156-2.2812-1.4805-0.48828-3.0391-0.73438-4.6719-0.73438-2.9375 0-5.2461 0.94531-6.9219 2.8281-1.6797 1.875-2.5156 4.4648-2.5156 7.7656 0 3.293 0.83594 5.8828 2.5156 7.7656 1.6758 1.875 3.9844 2.8125 6.9219 2.8125 1.6328 0 3.1914-0.23828 4.6719-0.71875 1.4766-0.48828 2.9844-1.2539 4.5156-2.2969z"/>
  </symbol>
  <symbol id="h" overflow="visible">
   <path d="m21.453-17.406c-0.67969-0.3125-1.3516-0.53906-2.0156-0.6875-0.65625-0.15625-1.3203-0.23438-1.9844-0.23438-1.9688 0-3.4844 0.63281-4.5469 1.8906-1.0547 1.2617-1.5781 3.0703-1.5781 5.4219v11.016h-7.6562v-23.922h7.6562v3.9219c0.97656-1.5625 2.1016-2.7031 3.375-3.4219 1.2812-0.71875 2.8125-1.0781 4.5938-1.0781 0.25 0 0.52344 0.011719 0.82812 0.03125 0.30078 0.023438 0.73438 0.070312 1.2969 0.14062z"/>
  </symbol>
  <symbol id="b" overflow="visible">
   <path d="m27.562-12.031v2.1875h-17.891c0.1875 1.793 0.83203 3.1367 1.9375 4.0312 1.1133 0.89844 2.6719 1.3438 4.6719 1.3438 1.6016 0 3.25-0.23438 4.9375-0.70312 1.6875-0.47656 3.4219-1.2031 5.2031-2.1719v5.8906c-1.8047 0.6875-3.6094 1.2031-5.4219 1.5469-1.8125 0.35156-3.6211 0.53125-5.4219 0.53125-4.3359 0-7.7031-1.0977-10.109-3.2969-2.3984-2.207-3.5938-5.2969-3.5938-9.2656 0-3.9062 1.1758-6.9727 3.5312-9.2031 2.3633-2.2383 5.6094-3.3594 9.7344-3.3594 3.7578 0 6.7695 1.1367 9.0312 3.4062 2.2578 2.2617 3.3906 5.2812 3.3906 9.0625zm-7.8594-2.5312c0-1.457-0.42969-2.6289-1.2812-3.5156-0.84375-0.89453-1.9492-1.3438-3.3125-1.3438-1.4922 0-2.6992 0.41797-3.625 1.25-0.91797 0.83594-1.4922 2.0391-1.7188 3.6094z"/>
  </symbol>
  <symbol id="a" overflow="visible">
   <path d="m14.391-10.766c-1.5938 0-2.793 0.27344-3.5938 0.8125-0.80469 0.54297-1.2031 1.3398-1.2031 2.3906 0 0.96875 0.32031 1.7305 0.96875 2.2812 0.64453 0.54297 1.5469 0.8125 2.7031 0.8125 1.4375 0 2.6445-0.51562 3.625-1.5469 0.98828-1.0312 1.4844-2.3203 1.4844-3.875v-0.875zm11.688-2.8906v13.656h-7.7031v-3.5469c-1.0312 1.4492-2.1875 2.5078-3.4688 3.1719s-2.8398 1-4.6719 1c-2.4805 0-4.4961-0.72266-6.0469-2.1719-1.543-1.4453-2.3125-3.3203-2.3125-5.625 0-2.8125 0.96094-4.8672 2.8906-6.1719 1.9375-1.3125 4.9688-1.9688 9.0938-1.9688h4.5156v-0.60938c0-1.207-0.48047-2.0938-1.4375-2.6562-0.94922-0.5625-2.4375-0.84375-4.4688-0.84375-1.6367 0-3.1562 0.16797-4.5625 0.5-1.4062 0.32422-2.7188 0.8125-3.9375 1.4688v-5.8281c1.6445-0.40625 3.2891-0.70703 4.9375-0.90625 1.6562-0.20703 3.3047-0.3125 4.9531-0.3125 4.3203 0 7.4375 0.85547 9.3438 2.5625 1.9141 1.6992 2.875 4.4609 2.875 8.2812z"/>
  </symbol>
  <symbol id="g" overflow="visible">
   <path d="m12.031-30.719v6.7969h7.875v5.4688h-7.875v10.141c0 1.1172 0.21875 1.8711 0.65625 2.2656 0.4375 0.38672 1.3125 0.57812 2.625 0.57812h3.9375v5.4688h-6.5625c-3.0234 0-5.1641-0.62891-6.4219-1.8906-1.2617-1.2578-1.8906-3.3984-1.8906-6.4219v-10.141h-3.7969v-5.4688h3.7969v-6.7969z"/>
  </symbol>
  <symbol id="f" overflow="visible">
   <path d="m19.953-20.422v-12.812h7.6875v33.234h-7.6875v-3.4531c-1.0547 1.4062-2.2148 2.4375-3.4844 3.0938-1.2734 0.65625-2.7422 0.98438-4.4062 0.98438-2.9492 0-5.3711-1.1719-7.2656-3.5156-1.8867-2.3438-2.8281-5.3594-2.8281-9.0469s0.94141-6.7031 2.8281-9.0469c1.8945-2.3438 4.3164-3.5156 7.2656-3.5156 1.6562 0 3.1172 0.33594 4.3906 1 1.2812 0.65625 2.4453 1.6836 3.5 3.0781zm-5.0469 15.484c1.6445 0 2.8945-0.59766 3.75-1.7969 0.86328-1.1953 1.2969-2.9297 1.2969-5.2031 0-2.2812-0.43359-4.0195-1.2969-5.2188-0.85547-1.1953-2.1055-1.7969-3.75-1.7969-1.625 0-2.8711 0.60156-3.7344 1.7969-0.85547 1.1992-1.2812 2.9375-1.2812 5.2188 0 2.2734 0.42578 4.0078 1.2812 5.2031 0.86328 1.1992 2.1094 1.7969 3.7344 1.7969z"/>
  </symbol>
  <symbol id="e" overflow="visible">
   <path d="m16.406-4.9375c1.6328 0 2.8828-0.59766 3.75-1.7969 0.86328-1.1953 1.2969-2.9297 1.2969-5.2031 0-2.2812-0.43359-4.0195-1.2969-5.2188-0.86719-1.1953-2.1172-1.7969-3.75-1.7969-1.6367 0-2.8906 0.60547-3.7656 1.8125-0.875 1.1992-1.3125 2.9336-1.3125 5.2031 0 2.2617 0.4375 3.9961 1.3125 5.2031 0.875 1.1992 2.1289 1.7969 3.7656 1.7969zm-5.0781-15.484c1.0508-1.3945 2.2188-2.4219 3.5-3.0781 1.2812-0.66406 2.7539-1 4.4219-1 2.9453 0 5.3672 1.1719 7.2656 3.5156 1.8945 2.3438 2.8438 5.3594 2.8438 9.0469s-0.94922 6.7031-2.8438 9.0469c-1.8984 2.3438-4.3203 3.5156-7.2656 3.5156-1.668 0-3.1406-0.33594-4.4219-1s-2.4492-1.6914-3.5-3.0781v3.4531h-7.6562v-33.234h7.6562z"/>
  </symbol>
  <symbol id="d" overflow="visible">
   <path d="m0.53125-23.922h7.6562l6.4219 16.234 5.4688-16.234h7.6562l-10.062 26.188c-1.0117 2.6641-2.1953 4.5234-3.5469 5.5781-1.3438 1.0625-3.1211 1.5938-5.3281 1.5938h-4.4219v-5.0156h2.3906c1.3008 0 2.2422-0.21094 2.8281-0.625 0.59375-0.40625 1.0547-1.1484 1.3906-2.2188l0.20312-0.65625z"/>
  </symbol>
  <symbol id="c" overflow="visible">
   <path d="m15.703-17.75c1.7188 0 2.9531-0.31641 3.7031-0.95312 0.75-0.64453 1.125-1.7031 1.125-3.1719 0-1.4453-0.375-2.4844-1.125-3.1094-0.75-0.63281-1.9844-0.95312-3.7031-0.95312h-3.4688v8.1875zm-3.4688 5.6875v12.062h-8.2188v-31.891h12.562c4.1953 0 7.2734 0.70312 9.2344 2.1094 1.957 1.4062 2.9375 3.6367 2.9375 6.6875 0 2.1055-0.51172 3.8359-1.5312 5.1875-1.0117 1.3555-2.543 2.3555-4.5938 3 1.125 0.25 2.1289 0.82812 3.0156 1.7344 0.89453 0.90625 1.7969 2.2773 2.7031 4.1094l4.4688 9.0625h-8.7656l-3.875-7.9219c-0.79297-1.5938-1.5898-2.6797-2.3906-3.2656-0.80469-0.58203-1.875-0.875-3.2188-0.875z"/>
  </symbol>
  <symbol id="m" overflow="visible">
   <path d="m27.734-14.562v14.562h-7.7031v-11.156c0-2.0625-0.046875-3.4844-0.14062-4.2656-0.085937-0.78125-0.24219-1.3594-0.46875-1.7344-0.30469-0.5-0.71094-0.88281-1.2188-1.1562-0.51172-0.28125-1.0938-0.42188-1.75-0.42188-1.5938 0-2.8516 0.61719-3.7656 1.8438-0.90625 1.2305-1.3594 2.9375-1.3594 5.125v11.766h-7.6562v-23.922h7.6562v3.5c1.1445-1.3945 2.3633-2.4219 3.6562-3.0781 1.3008-0.66406 2.7383-1 4.3125-1 2.7578 0 4.8516 0.85156 6.2812 2.5469 1.4375 1.6875 2.1562 4.1523 2.1562 7.3906z"/>
  </symbol>
  <symbol id="l" overflow="visible">
   <path d="m3.6719-33.234h7.6562v18.094l8.7969-8.7812h8.8906l-11.688 10.969 12.594 12.953h-9.2656l-9.3281-9.9688v9.9688h-7.6562z"/>
  </symbol>
  <symbol id="k" overflow="visible">
   <path d="m26.219-30.891v6.75c-1.7617-0.78125-3.4766-1.3672-5.1406-1.7656-1.668-0.40625-3.2422-0.60938-4.7188-0.60938-1.9609 0-3.4141 0.27344-4.3594 0.8125-0.9375 0.54297-1.4062 1.3867-1.4062 2.5312 0 0.85547 0.31641 1.5234 0.95312 2 0.63281 0.46875 1.7852 0.875 3.4531 1.2188l3.5 0.70312c3.5391 0.71875 6.0625 1.8047 7.5625 3.25 1.5 1.4492 2.25 3.5117 2.25 6.1875 0 3.5234-1.0469 6.1406-3.1406 7.8594-2.0859 1.7188-5.2734 2.5781-9.5625 2.5781-2.0234 0-4.0547-0.19531-6.0938-0.57812-2.0312-0.38281-4.0625-0.95703-6.0938-1.7188v-6.9375c2.0312 1.0859 3.9922 1.9023 5.8906 2.4531 1.9062 0.54297 3.7422 0.8125 5.5156 0.8125 1.7891 0 3.1602-0.29688 4.1094-0.89062 0.95703-0.60156 1.4375-1.457 1.4375-2.5625 0-1-0.32422-1.7695-0.96875-2.3125-0.64844-0.53906-1.9375-1.0234-3.875-1.4531l-3.1875-0.70312c-3.1875-0.6875-5.5234-1.7734-7-3.2656-1.4688-1.5-2.2031-3.5156-2.2031-6.0469 0-3.1758 1.0234-5.6172 3.0781-7.3281 2.0508-1.707 5-2.5625 8.8438-2.5625 1.75 0 3.5508 0.13281 5.4062 0.39062 1.8516 0.26172 3.7695 0.65625 5.75 1.1875z"/>
  </symbol>
  <symbol id="j" overflow="visible">
   <path d="m15.062-19.031c-1.6992 0-2.9961 0.60938-3.8906 1.8281-0.88672 1.2188-1.3281 2.9766-1.3281 5.2656 0 2.293 0.44141 4.0469 1.3281 5.2656 0.89453 1.2188 2.1914 1.8281 3.8906 1.8281 1.6641 0 2.9375-0.60938 3.8125-1.8281 0.88281-1.2188 1.3281-2.9727 1.3281-5.2656 0-2.2891-0.44531-4.0469-1.3281-5.2656-0.875-1.2188-2.1484-1.8281-3.8125-1.8281zm0-5.4688c4.1133 0 7.3281 1.1094 9.6406 3.3281s3.4688 5.2969 3.4688 9.2344c0 3.9297-1.1562 7.0078-3.4688 9.2344-2.3125 2.2188-5.5273 3.3281-9.6406 3.3281-4.1367 0-7.3711-1.1094-9.7031-3.3281-2.3242-2.2266-3.4844-5.3047-3.4844-9.2344 0-3.9375 1.1602-7.0156 3.4844-9.2344 2.332-2.2188 5.5664-3.3281 9.7031-3.3281z"/>
  </symbol>
  <symbol id="i" overflow="visible">
   <path d="m3.6719-33.234h7.6562v33.234h-7.6562z"/>
  </symbol>
 </defs>
 <g>
  <path d="m426.39 228.38c2.1875-2.5391 4.375-4.9883 6.6484-7.3516 2.8867-2.9766 5.8633-6.0391 8.9258-8.8359 6.0391-5.6875 12.25-11.113 18.898-16.102 1.6641-1.3125 3.3242-2.5391 5.0742-3.7617 1.6641-1.3125 3.3242-2.4492 5.0742-3.5 1.75-1.3125 3.3242-2.3633 5.1641-3.4141 1.75-1.1367 3.5-2.3633 5.3359-3.3242 7.1758-4.4609 14.613-8.5742 22.398-12.074 2.2734-1.2266 4.5508-2.2734 6.8242-3.1484 1.4883-0.69922 2.8867-1.3984 4.4609-1.9258 0.085938-0.085938 0.17578-0.17578 0.26172-0.085938 0.78906-0.4375 1.75-0.78906 2.625-1.0508 0.17578-0.17578 0.26172-0.26172 0.4375-0.17578 7.1758-2.9766 14.523-5.6875 22.227-7.9609 2.1016-0.69922 4.1992-1.3984 6.3867-1.9258 2.5391-0.875 5.1641-1.6641 7.7891-2.1875 3.4141-0.96094 7-1.9258 10.586-2.5391 0.085938-0.17578 0.26172-0.17578 0.35156-0.085938 1.0508-0.35156 2.2734-0.61328 3.3242-0.69922 3.2383-0.875 6.6484-1.5742 9.9766-2.1016 0.52344-0.17578 1.0508-0.26172 1.6641-0.26172l0.085938-0.085937c0.52344-0.17578 1.2266-0.26172 1.75-0.26172 1.0508-0.26172 2.2734-0.4375 3.3242-0.52344 2.5391-0.52344 4.9883-0.875 7.5234-1.3125 1.3125-0.26172 2.4492-0.4375 3.7617-0.52344 3.7617-0.52344 7.5234-1.0508 11.461-1.4883 0.4375-0.085938 0.875-0.085938 1.3125-0.085938 0.875-0.17578 1.75-0.26172 2.5391-0.26172 0.52344-0.085937 0.96094-0.17578 1.5742-0.17578 5.1641-0.52344 10.414-0.96094 15.836-1.3984-44.363-24.238-87.938-31.062-129.76-20.039-52.586 13.824-100.01 55.914-137.2 121.89 15.398 2.7109 30.801 5.6875 45.938 9.1016 5.5234-7.9688 11.211-15.32 17.422-22.32z"/>
  <path d="m582.57 154.61h-0.085938c-72.188 13.301-126.26 45.586-163.89 98.086 9.4492 2.1016 18.812 4.375 28.176 6.7383 45.324-32.727 92.574-54.602 140.88-65.188 0.52344-0.17578 1.0508-0.26172 1.75-0.35156 13.211-2.8867 26.336-4.9883 39.637-6.2109-11.375-17.238-26.688-28.176-46.465-33.074z"/>
  <path d="m458.32 262.5c10.324 2.7109 20.648 5.6016 30.801 8.6641 42.613-15.137 85.312-25.727 124.25-30.539l-25.898-37.012c-44.188 10.062-87.5 29.66-129.15 58.887z"/>
  <path d="m477.84 334.95c-77.961 32.023-180.95 11.461-266.88-52.676 1.2266 2.3633 2.625 4.7266 4.1992 6.9141 58.273 81.461 143.41 103.95 260.49 68.688 0.085937-0.085938 0.085937-0.085938 0.17578-0.085938 4.2891-1.3125 8.5742-2.7109 12.863-4.1992-1.6641-8.3164-5.3359-14.441-10.852-18.641z"/>
  <path d="m487.9 280.18c-0.085938 0-0.085938 0-0.17578-0.085937-68.688-20.301-141.05-34.477-214.9-42.176-7.0859-0.69922-13.738-2.1875-19.863-4.2891h-0.17578c-17.414-6.125-30.273-6.8242-37.977-2.1016-5.3359 3.2383-8.5742 9.1875-9.8008 18.113-0.69922 5.25-0.61328 10.938 0.4375 16.711 86.188 69.648 192.5 92.836 271.16 59.238 18.898-8.0508 35.523-19.25 49.613-33.336-12.688-4.1992-25.461-8.2266-38.148-12.074z"/>
  <path d="m207.73 294.44c-5.1641-7.3516-9.0117-15.836-10.852-24.324-0.085938-0.085937-0.085938-0.17578-0.085938-0.26172-0.085937-0.26172-0.085937-0.61328-0.085937-0.875-1.4883-7.0859-1.75-14-0.61328-20.562 1.5742-11.637 6.3008-19.773 14-24.5 5.8633-3.6758 13.301-5.0742 22.312-4.2891-16.977-18.551-24.586-50.836-23.273-97.914 0.26172-7.4375-1.1367-14.961-4.2891-21.789-3.9375-9.1016-10.324-16.449-18.637-21.262-15.836-9.1016-33.688-7.5234-49 4.375-6.3008 4.8984-11.289 11.113-14.875 18.289 0-0.085938 0.085937-0.26172 0.085937-0.35156-0.085937 0.26172-0.26172 0.52344-0.35156 0.78906-1.4883 2.7109-2.5391 5.5117-3.3242 7.9609-0.085937 0.26172-0.26172 0.52344-0.35156 0.78906-1.1367 3.7617-2.0117 7.5234-2.625 11.289-1.3984 9.8867-2.4492 20.301-3.3242 31.414v0.35156c-1.2266 16.363-1.4883 32.375-0.78906 47.426 0.085937 0.085937 0.085937 0.17578 0 0.26172 0.085937 0.26172 0.085937 0.4375 0 0.69922 4.1992 87.324 40.773 153.21 108.68 196.26 7.2617 4.6367 15.227 8.5742 23.625 11.551 0.085937 0 0.17578 0.085937 0.26172 0.085937 7.1758 2.7109 14.438 4.6367 22.227 6.125 26.949 4.8125 52.238 6.9141 74.898 6.125h0.17578c52.5-1.9258 92.836-18.812 122.68-51.625-112.61 30.012-198.8 4.4609-256.46-76.039z"/>
  <path d="m131.69 75.863c18.461-14.352 39.988-16.188 59.148-5.0742 8.4883 4.8984 15.312 11.988 19.949 20.648l23.273-15.398-29.664-18.023c-1.5742-0.96094-2.4492-2.8008-2.1016-4.7266l3.4141-19.512-39.023 10.148c-0.78906 0.26172-1.75 0.26172-2.5391 0l-15.043-4.9023c-12.949 13.824-21.262 28.438-24.5 43.574 2.0117-2.4492 4.4609-4.6367 7.0859-6.7344z"/>
  <path d="m70 138.16 16.711 4.5508h0.085937l16.977 4.6367c0.78906-9.4492 1.8359-18.375 2.9766-26.863 0.4375-2.8008 0.96094-5.5117 1.75-8.2266-18.375-1.4883-30.977 7.0898-38.5 25.902z"/>
  <path d="m89.426 152.86-7.6992 40.773c-0.4375 2.625 0.17578 5.3359 1.8359 7.4375 1.75 2.1016 4.1133 3.3242 6.7383 3.4141l4.0234 0.17578c2.9766 0.26172 6.4766-1.5742 8.2266-4.375-0.52344-14.086-0.35156-28.699 0.61328-43.75z"/>
  <path d="m272.91 509.34c-7.0859-4.1133-14.262-6.7383-21.523-7.9609v-84.262l-3.2383-0.96094c-1.5742-0.4375-3.0625-1.0508-4.6367-1.5742l-1.3125-0.4375c-0.875-0.35156-1.6641-0.61328-2.5391-1.0508l-6.4766-2.9766v91.262c-7.2617 1.2266-14.438 3.8516-21.523 7.9609-2.1016 1.2266-3.5859 3.1484-4.1992 5.5117-0.61328 2.3633-0.26172 4.8125 0.96094 6.9141 1.6641 2.8008 4.6367 4.5508 7.875 4.5508 1.5742 0 3.2383-0.4375 4.5508-1.2266 7.2617-4.1992 14.176-6.3008 21.176-6.3867h0.17578 0.085937c0.085938 0 0.17578 0 0.26172-0.085938 7 0.085938 14 2.1016 21.176 6.3008 1.3984 0.78906 2.9766 1.2266 4.6367 1.2266 3.2383 0 6.2109-1.75 7.875-4.4609 1.2266-2.1016 1.5742-4.5508 0.96094-6.9141-0.69922-2.2773-2.1875-4.2031-4.2852-5.4297z"/>
  <path d="m372.14 509.34c-7.0859-4.1133-14.352-6.7383-21.523-7.9609v-75.602l-5.0742 0.61328c-0.875 0.085937-1.6641 0.17578-2.5391 0.17578l-5.9492 0.17578h-4.5508v74.637c-7.2617 1.2266-14.438 3.8516-21.523 7.9609-2.1016 1.2266-3.5859 3.1484-4.1992 5.5117-0.61328 2.3633-0.26172 4.8125 0.96094 6.9141 1.6641 2.8008 4.6367 4.5508 7.875 4.5508 1.5742 0 3.1484-0.4375 4.5508-1.2266 7.2617-4.1992 14.262-6.3008 21.262-6.3867h0.17578 0.17578c7.0859 0 14 2.1016 21.262 6.3008 1.3984 0.78906 2.9766 1.2266 4.6367 1.2266 3.2383 0 6.2109-1.75 7.875-4.4609 1.2266-2.1016 1.5742-4.5508 0.96094-6.9141-0.78516-2.3633-2.2734-4.2891-4.375-5.5156z"/>
  <use x="70" y="691.25" xlink:href="#n"/>
  <use x="102.109375" y="691.25" xlink:href="#h"/>
  <use x="123.683594" y="691.25" xlink:href="#b"/>
  <use x="153.355469" y="691.25" xlink:href="#a"/>
  <use x="182.878906" y="691.25" xlink:href="#g"/>
  <use x="203.792969" y="691.25" xlink:href="#b"/>
  <use x="233.464844" y="691.25" xlink:href="#f"/>
  <use x="280.011719" y="691.25" xlink:href="#e"/>
  <use x="311.328125" y="691.25" xlink:href="#d"/>
  <use x="355.078125" y="691.25" xlink:href="#c"/>
  <use x="388.769531" y="691.25" xlink:href="#a"/>
  <use x="418.289062" y="691.25" xlink:href="#m"/>
  <use x="449.4375" y="691.25" xlink:href="#l"/>
  <use x="493.765625" y="691.25" xlink:href="#k"/>
  <use x="525.273438" y="691.25" xlink:href="#j"/>
  <use x="555.332031" y="691.25" xlink:href="#i"/>
 </g>
</svg>
